<svg width="3542" height="1000" viewBox="0 0 3542 1000" fill="none" xmlns="http://www.w3.org/2000/svg">
<path d="M1481.06 655.469L1610.75 338.281H1693.17L1517 775H1445.12L1272.47 338.281H1354.89L1481.06 655.469ZM1328.72 338.281V775H1229.89V338.281H1328.72ZM1637.31 775V338.281H1735.36V775H1637.31ZM2001.38 783.594C1958.67 783.594 1921.69 774.219 1890.44 755.469C1859.19 736.719 1834.97 710.417 1817.78 676.562C1800.85 642.708 1792.39 603.385 1792.39 558.594C1792.39 513.542 1800.85 474.089 1817.78 440.234C1834.97 406.12 1859.19 379.688 1890.44 360.938C1921.69 342.188 1958.67 332.812 2001.38 332.812C2044.08 332.812 2081.06 342.188 2112.31 360.938C2143.56 379.688 2167.78 406.12 2184.97 440.234C2202.16 474.089 2210.75 513.542 2210.75 558.594C2210.75 603.385 2202.16 642.708 2184.97 676.562C2167.78 710.417 2143.56 736.719 2112.31 755.469C2081.06 774.219 2044.08 783.594 2001.38 783.594ZM2001.38 700.781C2025.07 700.781 2044.6 694.531 2059.97 682.031C2075.33 669.271 2086.79 652.083 2094.34 630.469C2102.16 608.854 2106.06 584.896 2106.06 558.594C2106.06 531.771 2102.16 507.552 2094.34 485.938C2086.79 464.323 2075.33 447.266 2059.97 434.766C2044.6 422.005 2025.07 415.625 2001.38 415.625C1978.2 415.625 1958.8 422.005 1943.17 434.766C1927.55 447.266 1915.83 464.323 1908.02 485.938C1900.46 507.552 1896.69 531.771 1896.69 558.594C1896.69 584.896 1900.46 608.854 1908.02 630.469C1915.83 652.083 1927.55 669.271 1943.17 682.031C1958.8 694.531 1978.2 700.781 2001.38 700.781ZM2366.22 635.547L2541.22 338.281H2646.69V775H2547.86V477.344L2373.25 775H2267.39V338.281H2366.22V635.547ZM2456.45 288.281C2417.13 288.281 2385.1 277.734 2360.36 256.641C2335.88 235.547 2323.64 207.943 2323.64 173.828H2400.59C2400.59 190.234 2405.67 203.516 2415.83 213.672C2425.98 223.568 2439.53 228.516 2456.45 228.516C2473.38 228.516 2486.92 223.568 2497.08 213.672C2507.23 203.516 2512.31 190.234 2512.31 173.828H2589.66C2589.66 207.943 2577.29 235.547 2552.55 256.641C2528.07 277.734 2496.04 288.281 2456.45 288.281ZM2722.86 775V338.281H2825.59V514.844H2863.09L2994.73 338.281H3118.17L2956.84 553.125L3119.73 775H2995.52L2875.59 610.156H2825.59V775H2722.86ZM3273.64 783.984C3245.78 783.984 3220.78 779.036 3198.64 769.141C3176.51 758.984 3159.06 744.141 3146.3 724.609C3133.54 705.078 3127.16 680.99 3127.16 652.344C3127.16 627.865 3131.71 607.552 3140.83 591.406C3149.94 575.26 3162.31 562.37 3177.94 552.734C3193.82 543.099 3211.66 535.807 3231.45 530.859C3251.24 525.651 3271.69 522.005 3292.78 519.922C3318.56 517.057 3339.4 514.583 3355.28 512.5C3371.17 510.417 3382.62 507.031 3389.66 502.344C3396.95 497.656 3400.59 490.365 3400.59 480.469V478.516C3400.59 457.422 3394.34 441.016 3381.84 429.297C3369.34 417.578 3351.11 411.719 3327.16 411.719C3301.9 411.719 3281.84 417.188 3267 428.125C3252.42 439.062 3242.52 451.953 3237.31 466.797L3141.61 453.125C3149.16 426.562 3161.66 404.427 3179.11 386.719C3196.56 368.75 3217.78 355.339 3242.78 346.484C3268.04 337.37 3295.91 332.812 3326.38 332.812C3347.21 332.812 3368.04 335.286 3388.88 340.234C3409.71 344.922 3428.85 352.995 3446.3 364.453C3463.74 375.911 3477.68 391.276 3488.09 410.547C3498.51 429.818 3503.72 453.906 3503.72 482.812V775H3404.89V714.844H3401.77C3395.52 726.823 3386.66 738.151 3375.2 748.828C3364.01 759.245 3349.94 767.708 3333.02 774.219C3316.35 780.729 3296.56 783.984 3273.64 783.984ZM3299.81 708.203C3320.65 708.203 3338.61 704.167 3353.72 696.094C3368.82 687.76 3380.54 676.823 3388.88 663.281C3397.21 649.479 3401.38 634.505 3401.38 618.359V567.188C3397.99 569.792 3392.52 572.266 3384.97 574.609C3377.42 576.693 3368.82 578.646 3359.19 580.469C3349.55 582.292 3340.05 583.854 3330.67 585.156C3321.56 586.458 3313.61 587.5 3306.84 588.281C3291.48 590.365 3277.68 593.88 3265.44 598.828C3253.46 603.516 3243.95 610.026 3236.92 618.359C3229.89 626.693 3226.38 637.5 3226.38 650.781C3226.38 669.792 3233.28 684.115 3247.08 693.75C3260.88 703.385 3278.46 708.203 3299.81 708.203Z" fill="#111111"/>
<rect width="1000" height="1000" rx="300" fill="#013DFF"/>
<path opacity="0.43" d="M683.379 309.453C695.317 297.964 695.77 278.836 683.124 268.132C631.792 224.68 566.816 199.951 498.97 198.652C421.077 197.16 345.783 226.672 289.65 280.695C233.517 334.718 201.143 408.827 199.652 486.719C198.352 554.565 220.575 620.441 262.029 673.399C272.242 686.446 291.372 686.725 303.31 675.236L365.991 614.911C377.929 603.422 377.975 584.545 369.149 570.523C354.017 546.482 346.067 518.365 346.619 489.534C347.365 450.62 363.538 413.596 391.581 386.607C419.625 359.618 457.241 344.874 496.155 345.619C524.985 346.171 552.778 355.192 576.221 371.234C589.895 380.59 608.76 381.267 620.698 369.778L683.379 309.453Z" fill="white"/>
<path d="M317.094 689.558C305.156 701.047 304.703 720.175 317.349 730.88C368.681 774.331 433.657 799.06 501.503 800.36C579.395 801.851 654.69 772.34 710.823 718.316C766.956 664.293 799.329 590.184 800.821 512.292C802.121 444.446 779.898 378.57 738.444 325.612C728.231 312.565 709.1 312.286 697.162 323.775L634.481 384.1C622.543 395.59 622.497 414.466 631.324 428.488C646.456 452.529 654.406 480.647 653.853 509.477C653.108 548.391 636.935 585.415 608.891 612.404C580.848 639.394 543.232 654.137 504.318 653.392C475.488 652.84 447.695 643.819 424.251 627.777C410.578 618.421 391.713 617.744 379.775 629.233L317.094 689.558Z" fill="white"/>
</svg>
