<svg width="375" height="240" viewBox="0 0 375 240" fill="none" xmlns="http://www.w3.org/2000/svg">
<g clip-path="url(#clip0_2328_2184)">
<rect x="0.5" y="0.5" width="374" height="239" rx="19.5" fill="white" stroke="#DFDFDF"/>
<path opacity="0.8" d="M93.9599 199.121C93.2266 199.121 92.5556 198.949 91.9469 198.604C91.3456 198.259 90.8689 197.786 90.5169 197.185C90.1723 196.576 89.9999 195.898 89.9999 195.15C89.9999 194.402 90.1723 193.727 90.5169 193.126C90.8689 192.517 91.3456 192.041 91.9469 191.696C92.5556 191.351 93.2266 191.179 93.9599 191.179C94.6859 191.179 95.3496 191.351 95.9509 191.696C96.5596 192.041 97.0363 192.517 97.3809 193.126C97.7329 193.727 97.9089 194.402 97.9089 195.15C97.9089 195.898 97.7329 196.576 97.3809 197.185C97.0363 197.786 96.5596 198.259 95.9509 198.604C95.3496 198.949 94.6859 199.121 93.9599 199.121ZM93.9599 198.175C94.5099 198.175 95.0049 198.047 95.4449 197.79C95.8923 197.533 96.2406 197.174 96.4899 196.712C96.7466 196.25 96.8749 195.729 96.8749 195.15C96.8749 194.571 96.7466 194.05 96.4899 193.588C96.2406 193.126 95.8923 192.767 95.4449 192.51C95.0049 192.253 94.5099 192.125 93.9599 192.125C93.4026 192.125 92.9003 192.253 92.4529 192.51C92.0129 192.767 91.6646 193.126 91.4079 193.588C91.1586 194.05 91.0339 194.571 91.0339 195.15C91.0339 195.729 91.1586 196.25 91.4079 196.712C91.6646 197.174 92.0129 197.533 92.4529 197.79C92.9003 198.047 93.4026 198.175 93.9599 198.175ZM101.444 199H100.531V194.292H98.5511V193.456H103.424V194.292H101.444V199ZM105.238 199H104.325V193.456H109.132V199H108.219V194.292H105.238V199ZM110.739 201.09V193.456H111.608V194.38H111.663C111.853 194.065 112.125 193.815 112.477 193.632C112.836 193.441 113.217 193.346 113.621 193.346C114.097 193.346 114.53 193.467 114.919 193.709C115.315 193.951 115.626 194.292 115.854 194.732C116.081 195.165 116.195 195.663 116.195 196.228C116.195 196.793 116.081 197.295 115.854 197.735C115.626 198.168 115.315 198.505 114.919 198.747C114.53 198.989 114.097 199.11 113.621 199.11C113.225 199.11 112.851 199.018 112.499 198.835C112.154 198.652 111.89 198.41 111.707 198.109H111.652V201.09H110.739ZM113.423 198.274C113.98 198.274 114.424 198.091 114.754 197.724C115.084 197.357 115.249 196.859 115.249 196.228C115.249 195.59 115.084 195.091 114.754 194.732C114.424 194.365 113.98 194.182 113.423 194.182C112.887 194.182 112.458 194.369 112.136 194.743C111.813 195.11 111.652 195.605 111.652 196.228C111.652 196.851 111.813 197.35 112.136 197.724C112.458 198.091 112.887 198.274 113.423 198.274ZM119.729 193.346C120.448 193.346 121.009 193.54 121.412 193.929C121.823 194.31 122.028 194.824 122.028 195.469V199H121.159V198.076H121.104C120.935 198.362 120.671 198.608 120.312 198.813C119.953 199.011 119.542 199.11 119.08 199.11C118.699 199.11 118.361 199.037 118.068 198.89C117.775 198.736 117.544 198.531 117.375 198.274C117.214 198.017 117.133 197.728 117.133 197.405C117.133 196.921 117.313 196.529 117.672 196.228C118.031 195.92 118.548 195.766 119.223 195.766H121.115V195.469C121.115 195.051 120.99 194.732 120.741 194.512C120.492 194.292 120.154 194.182 119.729 194.182C119.333 194.182 119.014 194.274 118.772 194.457C118.537 194.633 118.387 194.864 118.321 195.15H117.375C117.412 194.813 117.529 194.508 117.727 194.237C117.932 193.958 118.204 193.742 118.541 193.588C118.886 193.427 119.282 193.346 119.729 193.346ZM119.289 198.274C119.824 198.274 120.257 198.113 120.587 197.79C120.924 197.467 121.1 197.046 121.115 196.525H119.278C118.867 196.525 118.563 196.606 118.365 196.767C118.174 196.921 118.079 197.126 118.079 197.383C118.079 197.647 118.178 197.863 118.376 198.032C118.581 198.193 118.886 198.274 119.289 198.274ZM127.271 196.118C127.565 196.191 127.803 196.353 127.986 196.602C128.177 196.844 128.272 197.119 128.272 197.427C128.272 197.889 128.107 198.267 127.777 198.56C127.455 198.853 127.004 199 126.424 199H123.575V193.456H126.38C126.901 193.456 127.308 193.588 127.601 193.852C127.902 194.116 128.052 194.453 128.052 194.864C128.052 195.121 127.979 195.359 127.832 195.579C127.693 195.792 127.506 195.953 127.271 196.063V196.118ZM124.488 194.292V195.755H126.248C126.52 195.755 126.729 195.689 126.875 195.557C127.029 195.418 127.106 195.242 127.106 195.029C127.106 194.802 127.033 194.622 126.886 194.49C126.74 194.358 126.527 194.292 126.248 194.292H124.488ZM126.347 198.164C126.655 198.164 126.894 198.091 127.062 197.944C127.238 197.797 127.326 197.603 127.326 197.361C127.326 197.119 127.238 196.925 127.062 196.778C126.894 196.631 126.655 196.558 126.347 196.558H124.488V198.164H126.347ZM130.671 199H129.494V193.456H130.407V197.9H130.462L133.355 193.456H134.532V199H133.619V194.556H133.564L130.671 199ZM137.046 199H136.133V193.456H137.277L139.334 196.965H139.389L141.468 193.456H142.59V199H141.677V194.655H141.622L139.73 197.856H138.993L137.101 194.655H137.046V199ZM150.932 195.777V193.456H151.845V199H150.932V196.613H147.896V199H146.983V193.456H147.896V195.777H150.932ZM155.715 193.346C156.434 193.346 156.995 193.54 157.398 193.929C157.809 194.31 158.014 194.824 158.014 195.469V199H157.145V198.076H157.09C156.922 198.362 156.658 198.608 156.298 198.813C155.939 199.011 155.528 199.11 155.066 199.11C154.685 199.11 154.348 199.037 154.054 198.89C153.761 198.736 153.53 198.531 153.361 198.274C153.2 198.017 153.119 197.728 153.119 197.405C153.119 196.921 153.299 196.529 153.658 196.228C154.018 195.92 154.535 195.766 155.209 195.766H157.101V195.469C157.101 195.051 156.977 194.732 156.727 194.512C156.478 194.292 156.141 194.182 155.715 194.182C155.319 194.182 155 194.274 154.758 194.457C154.524 194.633 154.373 194.864 154.307 195.15H153.361C153.398 194.813 153.515 194.508 153.713 194.237C153.919 193.958 154.19 193.742 154.527 193.588C154.872 193.427 155.268 193.346 155.715 193.346ZM155.275 198.274C155.811 198.274 156.243 198.113 156.573 197.79C156.911 197.467 157.087 197.046 157.101 196.525H155.264C154.854 196.525 154.549 196.606 154.351 196.767C154.161 196.921 154.065 197.126 154.065 197.383C154.065 197.647 154.164 197.863 154.362 198.032C154.568 198.193 154.872 198.274 155.275 198.274ZM160.475 199H159.562V193.456H164.369V199H163.456V194.292H160.475V199ZM168.45 199.11C167.915 199.11 167.431 198.985 166.998 198.736C166.573 198.487 166.235 198.146 165.986 197.713C165.744 197.273 165.623 196.778 165.623 196.228C165.623 195.678 165.744 195.187 165.986 194.754C166.235 194.314 166.573 193.969 166.998 193.72C167.431 193.471 167.915 193.346 168.45 193.346C168.993 193.346 169.477 193.471 169.902 193.72C170.335 193.962 170.672 194.303 170.914 194.743C171.156 195.183 171.277 195.678 171.277 196.228C171.277 196.778 171.156 197.273 170.914 197.713C170.672 198.153 170.335 198.498 169.902 198.747C169.477 198.989 168.993 199.11 168.45 199.11ZM168.45 198.274C169.022 198.274 169.477 198.087 169.814 197.713C170.159 197.339 170.331 196.844 170.331 196.228C170.331 195.612 170.159 195.117 169.814 194.743C169.477 194.369 169.022 194.182 168.45 194.182C167.885 194.182 167.431 194.369 167.086 194.743C166.749 195.117 166.58 195.612 166.58 196.228C166.58 196.844 166.749 197.339 167.086 197.713C167.431 198.087 167.885 198.274 168.45 198.274ZM173.451 199H172.538V193.456H173.682L175.739 196.965H175.794L177.873 193.456H178.995V199H178.082V194.655H178.027L176.135 197.856H175.398L173.506 194.655H173.451V199ZM181.783 199H180.606V193.456H181.519V197.9H181.574L184.467 193.456H185.644V199H184.731V194.556H184.676L181.783 199ZM191.193 195.777V193.456H192.106V199H191.193V196.613H188.157V199H187.244V193.456H188.157V195.777H191.193ZM195.977 193.346C196.696 193.346 197.257 193.54 197.66 193.929C198.071 194.31 198.276 194.824 198.276 195.469V199H197.407V198.076H197.352C197.184 198.362 196.92 198.608 196.56 198.813C196.201 199.011 195.79 199.11 195.328 199.11C194.947 199.11 194.61 199.037 194.316 198.89C194.023 198.736 193.792 198.531 193.623 198.274C193.462 198.017 193.381 197.728 193.381 197.405C193.381 196.921 193.561 196.529 193.92 196.228C194.28 195.92 194.797 195.766 195.471 195.766H197.363V195.469C197.363 195.051 197.239 194.732 196.989 194.512C196.74 194.292 196.403 194.182 195.977 194.182C195.581 194.182 195.262 194.274 195.02 194.457C194.786 194.633 194.635 194.864 194.569 195.15H193.623C193.66 194.813 193.777 194.508 193.975 194.237C194.181 193.958 194.452 193.742 194.789 193.588C195.134 193.427 195.53 193.346 195.977 193.346ZM195.537 198.274C196.073 198.274 196.505 198.113 196.835 197.79C197.173 197.467 197.349 197.046 197.363 196.525H195.526C195.116 196.525 194.811 196.606 194.613 196.767C194.423 196.921 194.327 197.126 194.327 197.383C194.327 197.647 194.426 197.863 194.624 198.032C194.83 198.193 195.134 198.274 195.537 198.274ZM203.773 195.777V193.456H204.686V199H203.773V196.613H200.737V199H199.824V193.456H200.737V195.777H203.773ZM207.467 199H206.29V193.456H207.203V197.9H207.258L210.151 193.456H211.328V199H210.415V194.556H210.36L207.467 199ZM218.231 196.514H213.545C213.604 197.042 213.805 197.467 214.15 197.79C214.495 198.113 214.924 198.274 215.437 198.274C215.833 198.274 216.178 198.182 216.471 197.999C216.772 197.816 216.995 197.555 217.142 197.218H218.099C217.93 197.746 217.611 198.193 217.142 198.56C216.68 198.927 216.112 199.11 215.437 199.11C214.909 199.11 214.425 198.985 213.985 198.736C213.552 198.479 213.208 198.131 212.951 197.691C212.702 197.251 212.577 196.763 212.577 196.228C212.577 195.693 212.702 195.205 212.951 194.765C213.208 194.325 213.552 193.98 213.985 193.731C214.425 193.474 214.909 193.346 215.437 193.346C215.958 193.346 216.431 193.471 216.856 193.72C217.281 193.969 217.615 194.318 217.857 194.765C218.106 195.212 218.231 195.722 218.231 196.294V196.514ZM215.437 194.182C214.953 194.182 214.542 194.325 214.205 194.611C213.875 194.897 213.666 195.278 213.578 195.755H217.274C217.186 195.286 216.977 194.908 216.647 194.622C216.317 194.329 215.914 194.182 215.437 194.182ZM225.745 196.118C226.038 196.191 226.277 196.353 226.46 196.602C226.651 196.844 226.746 197.119 226.746 197.427C226.746 197.889 226.581 198.267 226.251 198.56C225.928 198.853 225.477 199 224.898 199H222.049V193.456H224.854C225.375 193.456 225.782 193.588 226.075 193.852C226.376 194.116 226.526 194.453 226.526 194.864C226.526 195.121 226.453 195.359 226.306 195.579C226.167 195.792 225.98 195.953 225.745 196.063V196.118ZM222.962 194.292V195.755H224.722C224.993 195.755 225.202 195.689 225.349 195.557C225.503 195.418 225.58 195.242 225.58 195.029C225.58 194.802 225.507 194.622 225.36 194.49C225.213 194.358 225.001 194.292 224.722 194.292H222.962ZM224.821 198.164C225.129 198.164 225.367 198.091 225.536 197.944C225.712 197.797 225.8 197.603 225.8 197.361C225.8 197.119 225.712 196.925 225.536 196.778C225.367 196.631 225.129 196.558 224.821 196.558H222.962V198.164H224.821ZM233.72 199H232.411L230.321 191.3H231.377L233.104 197.812H233.159L234.963 191.3H236.206L238.021 197.812H238.076L239.803 191.3H240.815L238.736 199H237.416L235.601 192.488H235.546L233.72 199ZM241.837 199V191.3H242.75V194.314H242.805C242.974 194.028 243.22 193.797 243.542 193.621C243.872 193.438 244.25 193.346 244.675 193.346C245.343 193.346 245.863 193.551 246.237 193.962C246.619 194.365 246.809 194.941 246.809 195.689V199H245.896V195.843C245.896 195.315 245.775 194.908 245.533 194.622C245.291 194.329 244.936 194.182 244.466 194.182C243.968 194.182 243.557 194.347 243.234 194.677C242.912 195.007 242.75 195.436 242.75 195.964V199H241.837ZM250.623 193.346C251.341 193.346 251.902 193.54 252.306 193.929C252.716 194.31 252.922 194.824 252.922 195.469V199H252.053V198.076H251.998C251.829 198.362 251.565 198.608 251.206 198.813C250.846 199.011 250.436 199.11 249.974 199.11C249.592 199.11 249.255 199.037 248.962 198.89C248.668 198.736 248.437 198.531 248.269 198.274C248.107 198.017 248.027 197.728 248.027 197.405C248.027 196.921 248.206 196.529 248.566 196.228C248.925 195.92 249.442 195.766 250.117 195.766H252.009V195.469C252.009 195.051 251.884 194.732 251.635 194.512C251.385 194.292 251.048 194.182 250.623 194.182C250.227 194.182 249.908 194.274 249.666 194.457C249.431 194.633 249.281 194.864 249.215 195.15H248.269C248.305 194.813 248.423 194.508 248.621 194.237C248.826 193.958 249.097 193.742 249.435 193.588C249.779 193.427 250.175 193.346 250.623 193.346ZM250.183 198.274C250.718 198.274 251.151 198.113 251.481 197.79C251.818 197.467 251.994 197.046 252.009 196.525H250.172C249.761 196.525 249.457 196.606 249.259 196.767C249.068 196.921 248.973 197.126 248.973 197.383C248.973 197.647 249.072 197.863 249.27 198.032C249.475 198.193 249.779 198.274 250.183 198.274ZM257.686 198.164V199H256.63C256.088 199 255.673 198.861 255.387 198.582C255.109 198.296 254.969 197.874 254.969 197.317V194.292H253.737V193.456H254.969V192.059H255.882V193.456H257.345V194.292H255.882V197.317C255.882 197.61 255.948 197.827 256.08 197.966C256.22 198.098 256.429 198.164 256.707 198.164H257.686ZM260.725 199.11C259.991 199.11 259.401 198.949 258.954 198.626C258.506 198.296 258.275 197.856 258.261 197.306H259.207C259.243 197.629 259.39 197.871 259.647 198.032C259.903 198.193 260.263 198.274 260.725 198.274C261.187 198.274 261.539 198.201 261.781 198.054C262.023 197.907 262.144 197.706 262.144 197.449C262.144 197.2 262.023 197.02 261.781 196.91C261.539 196.793 261.168 196.683 260.67 196.58C260.208 196.477 259.83 196.375 259.537 196.272C259.243 196.169 258.994 196.008 258.789 195.788C258.583 195.568 258.481 195.267 258.481 194.886C258.481 194.593 258.572 194.329 258.756 194.094C258.939 193.859 259.196 193.676 259.526 193.544C259.863 193.412 260.248 193.346 260.681 193.346C261.106 193.346 261.491 193.419 261.836 193.566C262.188 193.713 262.466 193.914 262.672 194.171C262.877 194.42 262.983 194.699 262.991 195.007H262.045C261.971 194.457 261.513 194.182 260.67 194.182C260.281 194.182 259.977 194.248 259.757 194.38C259.544 194.512 259.438 194.692 259.438 194.919C259.438 195.088 259.5 195.227 259.625 195.337C259.757 195.44 259.918 195.52 260.109 195.579C260.299 195.638 260.567 195.704 260.912 195.777C261.366 195.872 261.74 195.971 262.034 196.074C262.327 196.177 262.576 196.338 262.782 196.558C262.994 196.778 263.101 197.075 263.101 197.449C263.101 197.948 262.888 198.351 262.463 198.659C262.037 198.96 261.458 199.11 260.725 199.11ZM270.821 199H269.809L269.039 196.954H265.53L264.76 199H263.759L266.696 191.3H267.906L270.821 199ZM267.257 192.334L265.871 196.041H268.698L267.312 192.334H267.257ZM271.893 201.09V193.456H272.762V194.38H272.817C273.008 194.065 273.279 193.815 273.631 193.632C273.99 193.441 274.372 193.346 274.775 193.346C275.252 193.346 275.684 193.467 276.073 193.709C276.469 193.951 276.781 194.292 277.008 194.732C277.235 195.165 277.349 195.663 277.349 196.228C277.349 196.793 277.235 197.295 277.008 197.735C276.781 198.168 276.469 198.505 276.073 198.747C275.684 198.989 275.252 199.11 274.775 199.11C274.379 199.11 274.005 199.018 273.653 198.835C273.308 198.652 273.044 198.41 272.861 198.109H272.806V201.09H271.893ZM274.577 198.274C275.134 198.274 275.578 198.091 275.908 197.724C276.238 197.357 276.403 196.859 276.403 196.228C276.403 195.59 276.238 195.091 275.908 194.732C275.578 194.365 275.134 194.182 274.577 194.182C274.042 194.182 273.613 194.369 273.29 194.743C272.967 195.11 272.806 195.605 272.806 196.228C272.806 196.851 272.967 197.35 273.29 197.724C273.613 198.091 274.042 198.274 274.577 198.274ZM278.617 201.09V193.456H279.486V194.38H279.541C279.732 194.065 280.003 193.815 280.355 193.632C280.715 193.441 281.096 193.346 281.499 193.346C281.976 193.346 282.409 193.467 282.797 193.709C283.193 193.951 283.505 194.292 283.732 194.732C283.96 195.165 284.073 195.663 284.073 196.228C284.073 196.793 283.96 197.295 283.732 197.735C283.505 198.168 283.193 198.505 282.797 198.747C282.409 198.989 281.976 199.11 281.499 199.11C281.103 199.11 280.729 199.018 280.377 198.835C280.033 198.652 279.769 198.41 279.585 198.109H279.53V201.09H278.617ZM281.301 198.274C281.859 198.274 282.302 198.091 282.632 197.724C282.962 197.357 283.127 196.859 283.127 196.228C283.127 195.59 282.962 195.091 282.632 194.732C282.302 194.365 281.859 194.182 281.301 194.182C280.766 194.182 280.337 194.369 280.014 194.743C279.692 195.11 279.53 195.605 279.53 196.228C279.53 196.851 279.692 197.35 280.014 197.724C280.337 198.091 280.766 198.274 281.301 198.274Z" fill="#111111"/>
<path d="M89.9969 113.696C91.0236 113.976 91.8449 114.517 92.4609 115.32C93.0956 116.123 93.4129 117.121 93.4129 118.316C93.4129 119.455 93.1236 120.453 92.5449 121.312C91.9849 122.152 91.1636 122.815 90.0809 123.3C89.0169 123.767 87.7382 124 86.2449 124H77.4529V104.4H86.4969C87.7662 104.4 88.8676 104.615 89.8009 105.044C90.7529 105.473 91.4809 106.071 91.9849 106.836C92.5076 107.601 92.7689 108.469 92.7689 109.44C92.7689 110.429 92.5169 111.279 92.0129 111.988C91.5276 112.697 90.8556 113.22 89.9969 113.556V113.696ZM81.3169 107.732V112.38H86.1049C86.9449 112.38 87.5982 112.175 88.0649 111.764C88.5502 111.335 88.7929 110.756 88.7929 110.028C88.7929 109.3 88.5596 108.74 88.0929 108.348C87.6262 107.937 86.9636 107.732 86.1049 107.732H81.3169ZM86.0769 120.668C87.1409 120.668 87.9622 120.444 88.5409 119.996C89.1196 119.548 89.4089 118.895 89.4089 118.036C89.4089 117.159 89.1196 116.505 88.5409 116.076C87.9809 115.647 87.1596 115.432 86.0769 115.432H81.3169V120.668H86.0769ZM103.19 114.284C105.02 114.284 106.42 114.741 107.39 115.656C108.38 116.552 108.874 117.709 108.874 119.128C108.874 120.565 108.38 121.741 107.39 122.656C106.42 123.552 105.02 124 103.19 124H96.6384V109.608H100.25V114.284H103.19ZM110.498 124V109.608H114.082V124H110.498ZM103.022 121.088C103.713 121.088 104.236 120.92 104.59 120.584C104.964 120.229 105.15 119.744 105.15 119.128C105.15 118.531 104.964 118.064 104.59 117.728C104.236 117.373 103.713 117.196 103.022 117.196H100.194V121.088H103.022ZM130.265 124.308C128.23 124.308 126.606 123.86 125.393 122.964C124.198 122.068 123.582 120.873 123.545 119.38H127.185C127.353 120.687 128.37 121.34 130.237 121.34C131.096 121.34 131.758 121.191 132.225 120.892C132.71 120.575 132.953 120.145 132.953 119.604C132.953 119.081 132.738 118.689 132.309 118.428C131.88 118.148 131.254 118.008 130.433 118.008H128.613V115.32H130.433C131.142 115.32 131.684 115.189 132.057 114.928C132.449 114.667 132.645 114.293 132.645 113.808C132.645 113.323 132.43 112.949 132.001 112.688C131.59 112.427 130.993 112.296 130.209 112.296C129.425 112.296 128.818 112.427 128.389 112.688C127.96 112.949 127.698 113.36 127.605 113.92H123.965C123.984 113.005 124.264 112.203 124.805 111.512C125.346 110.803 126.084 110.261 127.017 109.888C127.969 109.496 129.052 109.3 130.265 109.3C132.113 109.3 133.588 109.664 134.689 110.392C135.79 111.101 136.341 112.063 136.341 113.276C136.341 114.023 136.136 114.667 135.725 115.208C135.333 115.749 134.764 116.151 134.017 116.412V116.552C134.801 116.739 135.436 117.14 135.921 117.756C136.406 118.353 136.649 119.053 136.649 119.856C136.649 121.219 136.07 122.301 134.913 123.104C133.756 123.907 132.206 124.308 130.265 124.308ZM145.676 109.3C147.748 109.3 149.335 109.832 150.436 110.896C151.556 111.96 152.116 113.388 152.116 115.18V124H148.7V121.9H148.56C148.131 122.609 147.459 123.188 146.544 123.636C145.648 124.084 144.677 124.308 143.632 124.308C142.661 124.308 141.793 124.112 141.028 123.72C140.263 123.328 139.656 122.796 139.208 122.124C138.779 121.433 138.564 120.668 138.564 119.828C138.564 118.521 139.04 117.467 139.992 116.664C140.963 115.861 142.297 115.46 143.996 115.46H148.504V114.956C148.504 114.079 148.252 113.416 147.748 112.968C147.244 112.52 146.553 112.296 145.676 112.296C144.929 112.296 144.304 112.464 143.8 112.8C143.315 113.136 142.997 113.603 142.848 114.2H139.18C139.329 112.707 139.992 111.521 141.168 110.644C142.363 109.748 143.865 109.3 145.676 109.3ZM144.696 121.312C145.741 121.312 146.609 121.004 147.3 120.388C147.991 119.772 148.383 118.969 148.476 117.98H144.584C143.819 117.98 143.24 118.129 142.848 118.428C142.475 118.727 142.288 119.128 142.288 119.632C142.288 120.136 142.484 120.547 142.876 120.864C143.287 121.163 143.893 121.312 144.696 121.312ZM159.231 124H155.619V109.608H168.975V124H165.391V112.856H159.231V124ZM176.939 124H172.627V109.608H176.211V119.492H176.351L182.287 109.608H186.599V124H183.015V114.144H182.875L176.939 124ZM197.068 124.308C195.631 124.308 194.324 123.981 193.148 123.328C191.991 122.675 191.076 121.779 190.404 120.64C189.732 119.483 189.396 118.204 189.396 116.804C189.396 115.404 189.732 114.135 190.404 112.996C191.076 111.839 191.991 110.933 193.148 110.28C194.324 109.627 195.631 109.3 197.068 109.3C198.244 109.3 199.345 109.543 200.372 110.028C201.399 110.495 202.248 111.148 202.92 111.988C203.592 112.809 204.021 113.733 204.208 114.76H200.512C200.269 114.107 199.831 113.575 199.196 113.164C198.58 112.753 197.871 112.548 197.068 112.548C195.873 112.548 194.912 112.94 194.184 113.724C193.475 114.489 193.12 115.516 193.12 116.804C193.12 118.092 193.475 119.128 194.184 119.912C194.912 120.677 195.873 121.06 197.068 121.06C197.852 121.06 198.561 120.855 199.196 120.444C199.831 120.033 200.269 119.501 200.512 118.848H204.208C204.04 119.893 203.611 120.836 202.92 121.676C202.248 122.497 201.399 123.141 200.372 123.608C199.345 124.075 198.244 124.308 197.068 124.308ZM213.16 109.3C215.232 109.3 216.819 109.832 217.92 110.896C219.04 111.96 219.6 113.388 219.6 115.18V124H216.184V121.9H216.044C215.615 122.609 214.943 123.188 214.028 123.636C213.132 124.084 212.162 124.308 211.116 124.308C210.146 124.308 209.278 124.112 208.512 123.72C207.747 123.328 207.14 122.796 206.692 122.124C206.263 121.433 206.048 120.668 206.048 119.828C206.048 118.521 206.524 117.467 207.476 116.664C208.447 115.861 209.782 115.46 211.48 115.46H215.988V114.956C215.988 114.079 215.736 113.416 215.232 112.968C214.728 112.52 214.038 112.296 213.16 112.296C212.414 112.296 211.788 112.464 211.284 112.8C210.799 113.136 210.482 113.603 210.332 114.2H206.664C206.814 112.707 207.476 111.521 208.652 110.644C209.847 109.748 211.35 109.3 213.16 109.3ZM212.18 121.312C213.226 121.312 214.094 121.004 214.784 120.388C215.475 119.772 215.867 118.969 215.96 117.98H212.068C211.303 117.98 210.724 118.129 210.332 118.428C209.959 118.727 209.772 119.128 209.772 119.632C209.772 120.136 209.968 120.547 210.36 120.864C210.771 121.163 211.378 121.312 212.18 121.312ZM232.987 115.152V109.608H236.571V124H232.987V118.372H226.715V124H223.103V109.608H226.715V115.152H232.987ZM246.772 114.284C248.602 114.284 250.002 114.741 250.972 115.656C251.962 116.552 252.456 117.709 252.456 119.128C252.456 120.565 251.962 121.741 250.972 122.656C250.002 123.552 248.602 124 246.772 124H240.22V109.608H243.832V114.284H246.772ZM254.08 124V109.608H257.664V124H254.08ZM246.604 121.088C247.295 121.088 247.818 120.92 248.172 120.584C248.546 120.229 248.732 119.744 248.732 119.128C248.732 118.531 248.546 118.064 248.172 117.728C247.818 117.373 247.295 117.196 246.604 117.196H243.776V121.088H246.604ZM278.159 115.152V109.608H281.743V124H278.159V118.372H271.887V124H268.275V109.608H271.887V115.152H278.159ZM291.664 109.3C293.736 109.3 295.323 109.832 296.424 110.896C297.544 111.96 298.104 113.388 298.104 115.18V124H294.688V121.9H294.548C294.119 122.609 293.447 123.188 292.532 123.636C291.636 124.084 290.666 124.308 289.62 124.308C288.65 124.308 287.782 124.112 287.016 123.72C286.251 123.328 285.644 122.796 285.196 122.124C284.767 121.433 284.552 120.668 284.552 119.828C284.552 118.521 285.028 117.467 285.98 116.664C286.951 115.861 288.286 115.46 289.984 115.46H294.492V114.956C294.492 114.079 294.24 113.416 293.736 112.968C293.232 112.52 292.542 112.296 291.664 112.296C290.918 112.296 290.292 112.464 289.788 112.8C289.303 113.136 288.986 113.603 288.836 114.2H285.168C285.318 112.707 285.98 111.521 287.156 110.644C288.351 109.748 289.854 109.3 291.664 109.3ZM290.684 121.312C291.73 121.312 292.598 121.004 293.288 120.388C293.979 119.772 294.371 118.969 294.464 117.98H290.572C289.807 117.98 289.228 118.129 288.836 118.428C288.463 118.727 288.276 119.128 288.276 119.632C288.276 120.136 288.472 120.547 288.864 120.864C289.275 121.163 289.882 121.312 290.684 121.312ZM78.9162 143.648L83.3122 140.4H86.9242V160H82.9482V145.104L78.9162 148.016V143.648ZM90.2639 143.648L94.6599 140.4H98.2719V160H94.2959V145.104L90.2639 148.016V143.648ZM115.557 145.3C117.629 145.3 119.216 145.832 120.317 146.896C121.437 147.96 121.997 149.388 121.997 151.18V160H118.581V157.9H118.441C118.012 158.609 117.34 159.188 116.425 159.636C115.529 160.084 114.558 160.308 113.513 160.308C112.542 160.308 111.674 160.112 110.909 159.72C110.144 159.328 109.537 158.796 109.089 158.124C108.66 157.433 108.445 156.668 108.445 155.828C108.445 154.521 108.921 153.467 109.873 152.664C110.844 151.861 112.178 151.46 113.877 151.46H118.385V150.956C118.385 150.079 118.133 149.416 117.629 148.968C117.125 148.52 116.434 148.296 115.557 148.296C114.81 148.296 114.185 148.464 113.681 148.8C113.196 149.136 112.878 149.603 112.729 150.2H109.061C109.21 148.707 109.873 147.521 111.049 146.644C112.244 145.748 113.746 145.3 115.557 145.3ZM114.577 157.312C115.622 157.312 116.49 157.004 117.181 156.388C117.872 155.772 118.264 154.969 118.357 153.98H114.465C113.7 153.98 113.121 154.129 112.729 154.428C112.356 154.727 112.169 155.128 112.169 155.632C112.169 156.136 112.365 156.547 112.757 156.864C113.168 157.163 113.774 157.312 114.577 157.312ZM135.888 152.468C136.653 152.617 137.288 153.019 137.792 153.672C138.314 154.307 138.576 155.035 138.576 155.856C138.576 157.069 138.128 158.068 137.232 158.852C136.354 159.617 135.076 160 133.396 160H125.5V145.608H133.34C134.87 145.608 136.037 145.953 136.84 146.644C137.642 147.316 138.044 148.203 138.044 149.304C138.044 149.976 137.848 150.583 137.456 151.124C137.064 151.665 136.541 152.067 135.888 152.328V152.468ZM129.056 148.464V151.348H132.64C133.181 151.348 133.592 151.227 133.872 150.984C134.17 150.723 134.32 150.368 134.32 149.92C134.32 149.472 134.17 149.117 133.872 148.856C133.592 148.595 133.181 148.464 132.64 148.464H129.056ZM132.976 157.144C133.592 157.144 134.058 157.004 134.376 156.724C134.712 156.444 134.88 156.061 134.88 155.576C134.88 155.091 134.712 154.708 134.376 154.428C134.04 154.129 133.573 153.98 132.976 153.98H129.056V157.144H132.976ZM144.944 160H141.332V145.608H151.944V148.856H144.944V160ZM164.379 145.608H167.963L162.279 159.916C161.701 161.372 161.15 162.483 160.627 163.248C160.105 164.013 159.507 164.555 158.835 164.872C158.163 165.208 157.305 165.376 156.259 165.376H154.747V162.016H156.203C156.707 162.016 157.137 161.876 157.491 161.596C157.846 161.335 158.163 160.887 158.443 160.252L158.835 159.3L152.283 145.608H156.203L160.515 155.184H160.655L164.379 145.608ZM176.218 160.308C174.781 160.308 173.474 159.981 172.298 159.328C171.141 158.675 170.226 157.779 169.554 156.64C168.882 155.483 168.546 154.204 168.546 152.804C168.546 151.404 168.882 150.135 169.554 148.996C170.226 147.839 171.141 146.933 172.298 146.28C173.474 145.627 174.781 145.3 176.218 145.3C177.394 145.3 178.496 145.543 179.522 146.028C180.549 146.495 181.398 147.148 182.07 147.988C182.742 148.809 183.172 149.733 183.358 150.76H179.662C179.42 150.107 178.981 149.575 178.346 149.164C177.73 148.753 177.021 148.548 176.218 148.548C175.024 148.548 174.062 148.94 173.334 149.724C172.625 150.489 172.27 151.516 172.27 152.804C172.27 154.092 172.625 155.128 173.334 155.912C174.062 156.677 175.024 157.06 176.218 157.06C177.002 157.06 177.712 156.855 178.346 156.444C178.981 156.033 179.42 155.501 179.662 154.848H183.358C183.19 155.893 182.761 156.836 182.07 157.676C181.398 158.497 180.549 159.141 179.522 159.608C178.496 160.075 177.394 160.308 176.218 160.308ZM192.212 160H188.628V148.856H183.924V145.608H196.944V148.856H192.212V160ZM204.752 145.3C206.824 145.3 208.411 145.832 209.512 146.896C210.632 147.96 211.192 149.388 211.192 151.18V160H207.776V157.9H207.636C207.207 158.609 206.535 159.188 205.62 159.636C204.724 160.084 203.753 160.308 202.708 160.308C201.737 160.308 200.869 160.112 200.104 159.72C199.339 159.328 198.732 158.796 198.284 158.124C197.855 157.433 197.64 156.668 197.64 155.828C197.64 154.521 198.116 153.467 199.068 152.664C200.039 151.861 201.373 151.46 203.072 151.46H207.58V150.956C207.58 150.079 207.328 149.416 206.824 148.968C206.32 148.52 205.629 148.296 204.752 148.296C204.005 148.296 203.38 148.464 202.876 148.8C202.391 149.136 202.073 149.603 201.924 150.2H198.256C198.405 148.707 199.068 147.521 200.244 146.644C201.439 145.748 202.941 145.3 204.752 145.3ZM203.772 157.312C204.817 157.312 205.685 157.004 206.376 156.388C207.067 155.772 207.459 154.969 207.552 153.98H203.66C202.895 153.98 202.316 154.129 201.924 154.428C201.551 154.727 201.364 155.128 201.364 155.632C201.364 156.136 201.56 156.547 201.952 156.864C202.363 157.163 202.969 157.312 203.772 157.312ZM216.235 155.94C216.944 155.94 217.532 156.211 217.999 156.752C218.466 157.293 218.699 158.021 218.699 158.936C218.699 160.243 218.335 161.363 217.607 162.296C216.879 163.229 215.946 163.789 214.807 163.976V162.324C215.218 162.175 215.544 161.913 215.787 161.54C216.048 161.185 216.188 160.775 216.207 160.308H216.011C215.395 160.308 214.891 160.103 214.499 159.692C214.107 159.281 213.911 158.768 213.911 158.152C213.911 157.536 214.126 157.013 214.555 156.584C214.984 156.155 215.544 155.94 216.235 155.94ZM226.928 143.648L231.324 140.4H234.936V160H230.96V145.104L226.928 148.016V143.648ZM238.164 160V156.024L246.228 150.284C247.292 149.537 248.029 148.893 248.44 148.352C248.869 147.792 249.084 147.139 249.084 146.392C249.084 145.552 248.813 144.889 248.272 144.404C247.73 143.919 246.984 143.676 246.032 143.676C244.968 143.676 244.118 143.975 243.484 144.572C242.849 145.151 242.485 145.916 242.392 146.868H238.332C238.369 145.673 238.658 144.563 239.2 143.536C239.76 142.491 240.609 141.651 241.748 141.016C242.905 140.363 244.342 140.036 246.06 140.036C247.534 140.036 248.813 140.307 249.896 140.848C250.978 141.371 251.8 142.089 252.36 143.004C252.92 143.919 253.2 144.964 253.2 146.14C253.2 147.521 252.845 148.716 252.136 149.724C251.445 150.732 250.25 151.833 248.552 153.028L243.932 156.276V156.416H253.62V160H238.164ZM257.878 146.728C257.224 146.728 256.683 146.513 256.254 146.084C255.843 145.655 255.638 145.123 255.638 144.488C255.638 143.853 255.843 143.321 256.254 142.892C256.683 142.463 257.224 142.248 257.878 142.248C258.531 142.248 259.063 142.463 259.474 142.892C259.903 143.321 260.118 143.853 260.118 144.488C260.118 145.123 259.903 145.655 259.474 146.084C259.063 146.513 258.531 146.728 257.878 146.728ZM257.878 157.62C257.224 157.62 256.683 157.405 256.254 156.976C255.843 156.547 255.638 156.015 255.638 155.38C255.638 154.745 255.843 154.213 256.254 153.784C256.683 153.355 257.224 153.14 257.878 153.14C258.531 153.14 259.063 153.355 259.474 153.784C259.903 154.213 260.118 154.745 260.118 155.38C260.118 156.015 259.903 156.547 259.474 156.976C259.063 157.405 258.531 157.62 257.878 157.62ZM276.2 152.692H278.888V156.276H276.2V160H272.364V156.276H261.836V152.636L268.416 140.4H272.728L266.204 152.552V152.692H272.364V146.98H276.2V152.692ZM288.064 160.364C286.496 160.364 285.124 160.093 283.948 159.552C282.772 159.011 281.848 158.273 281.176 157.34C280.523 156.407 280.159 155.38 280.084 154.26H284.172C284.34 155.063 284.751 155.697 285.404 156.164C286.076 156.612 286.963 156.836 288.064 156.836C289.296 156.836 290.267 156.519 290.976 155.884C291.686 155.231 292.04 154.372 292.04 153.308C292.04 152.337 291.686 151.535 290.976 150.9C290.286 150.265 289.352 149.948 288.176 149.948C286.739 149.948 285.61 150.359 284.788 151.18H281.204L282.744 140.4H294.392V143.928H285.628L284.984 147.82H285.124C285.684 147.428 286.272 147.148 286.888 146.98C287.523 146.812 288.26 146.728 289.1 146.728C290.444 146.728 291.648 147.017 292.712 147.596C293.776 148.156 294.607 148.94 295.204 149.948C295.802 150.937 296.1 152.057 296.1 153.308C296.1 155.492 295.391 157.219 293.972 158.488C292.554 159.739 290.584 160.364 288.064 160.364Z" fill="#111111"/>
<path d="M296.156 32H294.476V23.6H301.544V32H299.864V25.196H296.156V32ZM303.284 34.304V25.832H304.748V26.72H304.808C305 26.408 305.276 26.16 305.636 25.976C306.004 25.792 306.4 25.7 306.824 25.7C307.336 25.7 307.808 25.836 308.24 26.108C308.672 26.372 309.016 26.748 309.272 27.236C309.528 27.724 309.656 28.284 309.656 28.916C309.656 29.556 309.528 30.12 309.272 30.608C309.016 31.096 308.672 31.472 308.24 31.736C307.808 32 307.336 32.132 306.824 32.132C306.424 32.132 306.048 32.048 305.696 31.88C305.344 31.712 305.076 31.488 304.892 31.208H304.832V34.304H303.284ZM306.44 30.776C306.936 30.776 307.328 30.612 307.616 30.284C307.912 29.956 308.06 29.5 308.06 28.916C308.06 28.332 307.912 27.88 307.616 27.56C307.328 27.232 306.936 27.068 306.44 27.068C305.944 27.068 305.552 27.232 305.264 27.56C304.976 27.888 304.832 28.34 304.832 28.916C304.832 29.492 304.976 29.948 305.264 30.284C305.552 30.612 305.944 30.776 306.44 30.776ZM313.77 32.132C313.146 32.132 312.586 31.996 312.09 31.724C311.594 31.444 311.202 31.06 310.914 30.572C310.634 30.084 310.494 29.532 310.494 28.916C310.494 28.3 310.634 27.748 310.914 27.26C311.194 26.772 311.582 26.392 312.078 26.12C312.582 25.84 313.146 25.7 313.77 25.7C314.394 25.7 314.954 25.84 315.45 26.12C315.946 26.392 316.334 26.772 316.614 27.26C316.894 27.748 317.034 28.3 317.034 28.916C317.034 29.532 316.894 30.084 316.614 30.572C316.334 31.06 315.946 31.444 315.45 31.724C314.954 31.996 314.394 32.132 313.77 32.132ZM313.77 30.74C314.282 30.74 314.686 30.576 314.982 30.248C315.286 29.92 315.438 29.476 315.438 28.916C315.438 28.356 315.286 27.912 314.982 27.584C314.686 27.256 314.282 27.092 313.77 27.092C313.258 27.092 312.85 27.256 312.546 27.584C312.242 27.912 312.09 28.356 312.09 28.916C312.09 29.476 312.238 29.92 312.534 30.248C312.838 30.576 313.25 30.74 313.77 30.74ZM325.605 28.916C325.605 29.532 325.461 30.076 325.173 30.548C324.893 31.02 324.513 31.392 324.033 31.664C323.561 31.928 323.041 32.072 322.473 32.096V34.304H320.937V32.096C320.369 32.072 319.845 31.928 319.365 31.664C318.885 31.392 318.501 31.02 318.213 30.548C317.933 30.076 317.793 29.532 317.793 28.916C317.793 28.3 317.933 27.756 318.213 27.284C318.501 26.812 318.885 26.444 319.365 26.18C319.845 25.908 320.369 25.76 320.937 25.736V23.54H322.473V25.736C323.041 25.76 323.561 25.908 324.033 26.18C324.513 26.444 324.893 26.812 325.173 27.284C325.461 27.756 325.605 28.3 325.605 28.916ZM319.377 28.916C319.377 29.468 319.525 29.904 319.821 30.224C320.117 30.544 320.493 30.716 320.949 30.74V27.092C320.493 27.116 320.117 27.288 319.821 27.608C319.525 27.928 319.377 28.364 319.377 28.916ZM322.449 30.74C322.905 30.716 323.281 30.544 323.577 30.224C323.873 29.904 324.021 29.468 324.021 28.916C324.021 28.364 323.873 27.928 323.577 27.608C323.281 27.288 322.905 27.116 322.449 27.092V30.74ZM328.569 32H326.721V25.832H328.257V30.068H328.317L330.861 25.832H332.709V32H331.173V27.776H331.113L328.569 32ZM334.784 25.832H339.74V32H338.204V27.2H336.176L335.996 29.828C335.94 30.652 335.744 31.248 335.408 31.616C335.08 31.976 334.572 32.156 333.884 32.156H333.56V30.716H333.632C333.912 30.716 334.124 30.64 334.268 30.488C334.412 30.336 334.496 30.08 334.52 29.72L334.784 25.832ZM344.288 27.836C345.064 27.836 345.66 28.032 346.076 28.424C346.5 28.808 346.712 29.304 346.712 29.912C346.712 30.528 346.504 31.032 346.088 31.424C345.672 31.808 345.072 32 344.288 32H341.3V25.832H342.848V27.836H344.288ZM344.204 30.752C344.508 30.752 344.736 30.68 344.888 30.536C345.048 30.384 345.128 30.176 345.128 29.912C345.128 29.656 345.048 29.456 344.888 29.312C344.736 29.16 344.508 29.084 344.204 29.084H342.824V30.752H344.204Z" fill="#111111"/>
<path d="M30 24H46" stroke="#111111" stroke-width="2" stroke-linecap="round"/>
<path d="M30 32H46" stroke="#111111" stroke-width="2" stroke-linecap="round"/>
<path d="M180.142 31.6977L183.657 23.1336H185.891L181.116 34.925H179.168L174.488 23.1336H176.722L180.142 31.6977ZM176.013 23.1336V34.925H173.334V23.1336H176.013ZM184.377 34.925V23.1336H187.034V34.925H184.377ZM194.244 35.157C193.087 35.157 192.084 34.9039 191.237 34.3977C190.39 33.8914 189.734 33.1813 189.268 32.2672C188.809 31.3531 188.58 30.2914 188.58 29.082C188.58 27.8656 188.809 26.8004 189.268 25.8863C189.734 24.9652 190.39 24.2516 191.237 23.7453C192.084 23.2391 193.087 22.9859 194.244 22.9859C195.401 22.9859 196.404 23.2391 197.251 23.7453C198.098 24.2516 198.754 24.9652 199.22 25.8863C199.686 26.8004 199.919 27.8656 199.919 29.082C199.919 30.2914 199.686 31.3531 199.22 32.2672C198.754 33.1813 198.098 33.8914 197.251 34.3977C196.404 34.9039 195.401 35.157 194.244 35.157ZM194.244 32.9211C194.886 32.9211 195.416 32.7523 195.832 32.4148C196.248 32.0703 196.559 31.6062 196.764 31.0227C196.976 30.4391 197.081 29.7922 197.081 29.082C197.081 28.3578 196.976 27.7039 196.764 27.1203C196.559 26.5367 196.248 26.0762 195.832 25.7387C195.416 25.3941 194.886 25.2219 194.244 25.2219C193.616 25.2219 193.09 25.3941 192.666 25.7387C192.243 26.0762 191.925 26.5367 191.714 27.1203C191.509 27.7039 191.407 28.3578 191.407 29.082C191.407 29.7922 191.509 30.4391 191.714 31.0227C191.925 31.6062 192.243 32.0703 192.666 32.4148C193.09 32.7523 193.616 32.9211 194.244 32.9211ZM204.133 31.1598L208.876 23.1336H211.734V34.925H209.056V26.8883L204.323 34.925H201.454V23.1336H204.133V31.1598ZM206.578 21.7836C205.512 21.7836 204.644 21.4988 203.974 20.9293C203.31 20.3598 202.978 19.6145 202.978 18.6934H205.064C205.064 19.1363 205.202 19.4949 205.477 19.7691C205.752 20.0363 206.119 20.1699 206.578 20.1699C207.037 20.1699 207.404 20.0363 207.679 19.7691C207.954 19.4949 208.092 19.1363 208.092 18.6934H210.189C210.189 19.6145 209.853 20.3598 209.183 20.9293C208.519 21.4988 207.651 21.7836 206.578 21.7836ZM213.799 34.925V23.1336H216.583V27.9008H217.599L221.167 23.1336H224.513L220.14 28.9344L224.555 34.925H221.189L217.938 30.4742H216.583V34.925H213.799ZM228.727 35.1676C227.972 35.1676 227.294 35.034 226.694 34.7668C226.094 34.4926 225.621 34.0918 225.275 33.5644C224.929 33.0371 224.757 32.3867 224.757 31.6133C224.757 30.9524 224.88 30.4039 225.127 29.968C225.374 29.532 225.709 29.184 226.133 28.9238C226.563 28.6637 227.047 28.4668 227.583 28.3332C228.12 28.1926 228.674 28.0941 229.245 28.0379C229.944 27.9605 230.509 27.8937 230.939 27.8375C231.37 27.7813 231.68 27.6898 231.871 27.5633C232.069 27.4367 232.167 27.2399 232.167 26.9727V26.9199C232.167 26.3504 231.998 25.9074 231.659 25.591C231.32 25.2746 230.826 25.1164 230.177 25.1164C229.493 25.1164 228.949 25.2641 228.547 25.5594C228.152 25.8547 227.883 26.2027 227.742 26.6035L225.148 26.2344C225.353 25.5172 225.692 24.9195 226.165 24.4414C226.638 23.9563 227.213 23.5942 227.89 23.3551C228.575 23.109 229.33 22.9859 230.156 22.9859C230.721 22.9859 231.285 23.0527 231.85 23.1863C232.415 23.3129 232.933 23.5309 233.406 23.8402C233.879 24.1496 234.257 24.5645 234.539 25.0848C234.821 25.6051 234.963 26.2555 234.963 27.0359V34.925H232.284V33.3008H232.199C232.03 33.6242 231.79 33.9301 231.479 34.2184C231.176 34.4996 230.795 34.7281 230.336 34.9039C229.884 35.0797 229.348 35.1676 228.727 35.1676ZM229.436 33.1215C230.001 33.1215 230.488 33.0125 230.897 32.7945C231.306 32.5695 231.624 32.2742 231.85 31.9086C232.076 31.5359 232.189 31.1316 232.189 30.6957V29.3141C232.097 29.3844 231.949 29.4512 231.744 29.5144C231.539 29.5707 231.306 29.6234 231.045 29.6727C230.784 29.7219 230.527 29.7641 230.272 29.7992C230.025 29.8344 229.81 29.8625 229.626 29.8836C229.21 29.9399 228.836 30.0348 228.504 30.1684C228.18 30.2949 227.922 30.4707 227.731 30.6957C227.541 30.9207 227.446 31.2125 227.446 31.5711C227.446 32.0844 227.633 32.4711 228.007 32.7313C228.381 32.9914 228.857 33.1215 229.436 33.1215Z" fill="#111111"/>
<path d="M158.972 14H148.131C143.64 14 140 17.6265 140 22.1V32.9C140 37.3735 143.64 41 148.131 41H158.972C163.463 41 167.103 37.3735 167.103 32.9V22.1C167.103 17.6265 163.463 14 158.972 14Z" fill="#013DFF"/>
<path opacity="0.43" d="M158.522 22.3554C158.845 22.0452 158.858 21.5287 158.515 21.2397C157.124 20.0665 155.362 19.3988 153.524 19.3638C151.412 19.3235 149.372 20.1203 147.85 21.5789C146.329 23.0375 145.452 25.0385 145.411 27.1416C145.376 28.9734 145.978 30.7521 147.102 32.1819C147.379 32.5342 147.897 32.5417 148.221 32.2315L149.919 30.6028C150.243 30.2926 150.244 29.7829 150.005 29.4043C149.595 28.7552 149.379 27.996 149.394 27.2176C149.415 26.1669 149.853 25.1672 150.613 24.4385C151.373 23.7098 152.393 23.3118 153.447 23.3319C154.229 23.3468 154.982 23.5903 155.617 24.0235C155.988 24.2761 156.499 24.2944 156.823 23.9842L158.522 22.3554Z" fill="white"/>
<path d="M148.594 32.6183C148.271 32.9285 148.258 33.445 148.601 33.734C149.992 34.9072 151.754 35.5749 153.592 35.61C155.704 35.6502 157.744 34.8534 159.266 33.3948C160.787 31.9361 161.664 29.9352 161.705 27.8321C161.74 26.0003 161.138 24.2216 160.014 22.7918C159.737 22.4395 159.219 22.432 158.895 22.7422L157.197 24.3709C156.873 24.6812 156.872 25.1908 157.111 25.5694C157.521 26.2185 157.737 26.9777 157.722 27.7561C157.701 28.8068 157.263 29.8064 156.503 30.5351C155.743 31.2639 154.723 31.6619 153.669 31.6418C152.887 31.6269 152.134 31.3833 151.499 30.9502C151.128 30.6976 150.617 30.6793 150.293 30.9895L148.594 32.6183Z" fill="white"/>
<path d="M0.5 54H374.5" stroke="#DFDFDF"/>
</g>
<defs>
<clipPath id="clip0_2328_2184">
<rect width="375" height="240" rx="20" fill="white"/>
</clipPath>
</defs>
</svg>
